PathFileType	4	(X/Y/Z)	C:/Users/opensim2020/Desktop/walking_exp_matlab/subject06_walking13_straight_04.trc	
DataRate	CameraRate	NumFrames	NumMarkers	Units	OrigDataRate	OrigDataStartFrame	OrigNumFrames	
100.00	100.00	8	50	mm	100.00	2987	204	
Frame#	Time	LFHD			RFHD			LBHD			RBHD			C7			T10			CLAV			STRN			RBAK			LSHO			LUPA			LELB			LFRM			LWRA			LWRB			LFIN			RSHO			RUPA			RELB			RFRM			RWRA			RWRB			RFIN			LASI			RASI			LPSI			RPSI			LTHI			LKNE			LTIB			LANK			LHEE			LTOE			RTHI			RKNE			RTIB			RANK			RHEE			RTOE			*39			*40			*41			*42			*43			*44			*45			*46			*47			*48			*49			
		X1	Y1	Z1	X2	Y2	Z2	X3	Y3	Z3	X4	Y4	Z4	X5	Y5	Z5	X6	Y6	Z6	X7	Y7	Z7	X8	Y8	Z8	X9	Y9	Z9	X10	Y10	Z10	X11	Y11	Z11	X12	Y12	Z12	X13	Y13	Z13	X14	Y14	Z14	X15	Y15	Z15	X16	Y16	Z16	X17	Y17	Z17	X18	Y18	Z18	X19	Y19	Z19	X20	Y20	Z20	X21	Y21	Z21	X22	Y22	Z22	X23	Y23	Z23	X24	Y24	Z24	X25	Y25	Z25	X26	Y26	Z26	X27	Y27	Z27	X28	Y28	Z28	X29	Y29	Z29	X30	Y30	Z30	X31	Y31	Z31	X32	Y32	Z32	X33	Y33	Z33	X34	Y34	Z34	X35	Y35	Z35	X36	Y36	Z36	X37	Y37	Z37	X38	Y38	Z38	X39	Y39	Z39	X40	Y40	Z40	X41	Y41	Z41	X42	Y42	Z42	X43	Y43	Z43	X44	Y44	Z44	X45	Y45	Z45	X46	Y46	Z46	X47	Y47	Z47	X48	Y48	Z48	X49	Y49	Z49	X50	Y50	Z50	

128	1.270	1499.47217	-38.56239	1651.44153	1369.03333	-23.83442	1633.86951	1517.38818	92.59055	1593.77625	1389.24255	106.15051	1582.40271	1463.40466	96.59935	1432.32422	1455.22168	122.02302	1101.90234	1454.80078	-16.79457	1358.57922	1464.31323	-60.92585	1184.93445	1392.68591	168.51224	1259.60339	1619.45752	31.80191	1391.29614	1705.53625	-6.86993	1199.74341	1729.29932	-36.73646	1093.34473	1742.96521	-145.70772	991.50903	1685.74170	-258.68814	947.15094	1727.28296	-223.71419	902.03339	1720.68262	-309.03094	875.03314	1296.22034	40.59106	1387.36157	1218.42725	115.36945	1196.06958	1207.83313	126.81683	1074.29211	1189.69775	142.59961	955.06030	1214.25842	118.58495	802.95593	1178.69812	173.93791	820.84760	1174.60425	161.50922	736.53876	1570.58154	-57.08638	946.82391	1349.68628	-68.26381	956.29962	1531.51917	100.42838	969.92609	1363.00427	84.25468	970.23907	1616.67773	45.96180	636.21606	1591.77527	78.37170	473.63675	1581.53796	209.68265	249.08592	1534.87061	284.77155	91.95968	1495.37207	332.68488	91.22949	1511.51917	151.57701	38.99342	1283.36865	-90.82097	626.56696	1316.03455	-136.05075	510.29739	1317.46655	-180.09871	254.77632	1360.08521	-239.12386	76.54375	1408.01648	-212.97136	40.30246	1361.47131	-394.64737	88.98531	1450.16589	68.96057	1684.62061																														 
129	1.280	1498.62317	-49.62861	1650.67200	1368.14966	-34.76301	1632.98730	1516.73572	81.49492	1593.11096	1388.60583	95.12872	1581.58350	1462.69250	85.47234	1431.35461	1454.74182	110.06544	1100.93774	1454.16260	-28.10060	1357.88074	1463.83838	-72.74988	1184.39465	1392.17334	156.86769	1258.43665	1618.79639	20.80541	1390.61731	1704.60559	-17.97715	1199.03320	1728.21875	-48.11053	1092.77515	1741.93909	-158.10214	992.24451	1684.75952	-271.70233	949.62640	1725.95483	-237.26123	903.84650	1719.77917	-322.97174	878.29779	1295.56567	29.38706	1386.51550	1217.89575	104.20823	1195.26843	1207.22229	115.58203	1073.54053	1188.85144	131.87491	954.32971	1213.52710	107.83817	802.16864	1177.88257	163.07181	820.28076	1173.78430	151.04601	735.79462	1570.14673	-69.04355	945.85400	1349.13574	-80.71904	955.80182	1530.65967	88.25951	969.03186	1362.30408	71.55694	969.75195	1616.17883	35.22170	635.24298	1591.59644	68.06503	472.77408	1581.68018	204.20087	250.72415	1535.88257	282.62271	95.35181	1496.55798	330.85886	95.88198	1511.69189	151.64499	39.05844	1283.70203	-103.41930	626.30322	1316.67395	-148.93095	510.54166	1317.78528	-189.44511	253.20618	1360.70154	-244.42961	74.12769	1407.73401	-216.83212	39.45356	1364.09326	-399.95804	84.14816	1449.38416	57.90228	1683.85120																														 
130	1.290	1497.80322	-60.64608	1650.00903	1367.37146	-45.79854	1632.21484	1515.95850	70.46651	1592.43982	1387.85583	84.09618	1580.79431	1462.02942	74.41615	1430.46240	1454.10144	97.85524	1100.05981	1453.51709	-39.48619	1357.29639	1463.25220	-84.68435	1183.89697	1391.65173	145.13440	1257.34875	1618.10242	9.69219	1390.03125	1703.62170	-29.05326	1198.36865	1726.98767	-59.23063	1092.22485	1740.49805	-169.85121	992.71198	1683.65063	-284.20197	951.66998	1724.50806	-250.21448	905.31030	1718.72351	-336.31818	880.93695	1294.89746	18.10275	1385.81018	1217.34045	92.78081	1194.54761	1206.55713	104.05700	1072.80005	1188.05469	120.40766	953.64783	1212.79565	96.60587	801.41034	1177.11536	151.81876	819.53650	1172.98364	139.80510	735.10632	1569.71912	-81.17529	945.04010	1348.49255	-93.43970	955.37195	1529.73755	75.91922	968.26990	1361.41833	58.95890	969.53979	1615.62366	24.02341	634.31940	1591.35950	57.24898	471.91769	1582.06445	198.08672	252.75046	1536.80627	280.17200	99.15497	1498.00220	328.69263	101.07249	1511.69263	151.08583	38.98662	1284.29834	-116.20212	626.09167	1317.70923	-161.76106	510.99982	1318.35974	-197.81268	251.49611	1361.67566	-247.30629	71.29647	1408.72717	-218.48158	38.24350	1366.44397	-403.06906	76.72807	1448.56128	46.87538	1683.11816																														 
131	1.300	1497.07214	-71.69661	1649.64380	1366.52258	-56.83929	1631.72949	1515.18481	59.46055	1591.83142	1387.08386	73.07370	1580.20447	1461.28784	63.41743	1429.71948	1453.32935	85.36488	1099.27917	1452.78687	-50.94126	1356.99390	1462.60071	-96.66362	1183.64246	1391.11987	133.48729	1256.31177	1617.34033	-1.49230	1389.49426	1702.58496	-40.05719	1197.72192	1725.75830	-70.02950	1091.62439	1739.39038	-181.42514	992.86353	1682.42871	-296.10483	953.21906	1722.94617	-262.43243	906.29907	1717.55652	-348.79739	883.05328	1294.17871	6.75702	1385.29102	1216.71057	81.15513	1193.85315	1205.86340	92.25359	1072.11609	1187.39709	108.58028	952.97693	1211.92822	84.67147	800.61560	1176.29773	139.86227	819.05560	1172.24963	128.00465	734.46399	1569.26086	-93.56654	944.38739	1347.72144	-106.04832	955.01709	1528.78247	63.56838	967.71600	1359.90430	46.30216	969.49713	1614.91418	12.44833	633.34119	1590.85913	45.89240	470.99579	1582.85535	191.21600	255.17178	1537.80286	277.28833	103.34256	1499.17358	325.79340	106.61931	1511.70410	150.67899	38.98547	1285.27112	-129.52071	626.58783	1319.04041	-175.24782	512.05646	1319.82227	-205.34380	250.71643	1362.43726	-250.22430	70.52257	1409.58862	-220.29958	40.02341	1367.51660	-406.63754	67.45815	1447.79358	35.99098	1682.56067																														 
132	1.310	1496.31042	-82.53165	1650.06116	1365.74524	-67.75203	1632.05664	1514.41028	48.40638	1591.65698	1386.23657	61.91939	1579.88318	1460.33643	52.49212	1429.63281	1452.98486	72.82258	1098.85229	1452.08069	-62.31610	1357.22290	1461.92749	-108.40546	1183.76978	1390.35193	121.84213	1255.37769	1616.72400	-12.37941	1389.19849	1701.47339	-51.00726	1197.09717	1724.47729	-80.57327	1090.90710	1737.97351	-192.38431	992.74323	1681.16260	-307.47949	954.22784	1721.36426	-274.04016	906.85986	1716.22205	-360.61420	884.45947	1293.27673	-4.63137	1385.10730	1215.96960	69.37896	1193.24805	1205.07703	80.12445	1071.53699	1186.68115	96.27256	952.34271	1211.43201	72.43787	800.17041	1175.57874	127.51074	818.31403	1171.51123	115.53725	733.94971	1568.86609	-106.05510	943.94403	1346.97485	-118.70483	955.12860	1527.98633	51.20189	967.39966	1358.72339	33.78439	970.13568	1613.92542	0.38312	632.32593	1590.02124	33.73889	470.09961	1582.47327	184.17509	257.66086	1538.96350	273.73019	108.14713	1500.70654	322.09625	112.96832	1511.89905	149.88760	38.87556	1285.99902	-142.61490	628.30981	1320.42944	-187.98094	514.62689	1319.13135	-213.96382	251.85213	1361.03491	-254.68198	71.72922	1408.14063	-222.80434	41.57802	1367.54980	-410.00601	62.76295	1446.95142	25.25238	1682.42725																														 
133	1.320	1495.49158	-93.15127	1651.23413	1364.96777	-78.64883	1633.03699	1513.47290	37.45406	1592.09790	1385.40222	50.74029	1580.20801	1459.62585	41.38666	1430.32336	1453.07349	60.50855	1099.01489	1451.26636	-73.47541	1358.08899	1461.33276	-119.86610	1184.33228	1389.45044	110.19489	1254.98486	1616.30029	-23.44469	1389.45129	1700.37085	-61.82745	1196.65100	1723.22363	-90.86638	1090.28040	1736.40637	-202.91605	992.44391	1679.84302	-318.31189	954.70245	1719.59338	-284.95044	906.95544	1714.87280	-371.69666	885.27637	1292.27307	-16.02153	1385.27698	1215.17969	57.10732	1192.89270	1204.32300	67.62754	1071.13232	1186.17920	83.13191	951.84369	1210.87634	58.96402	799.59222	1174.94177	114.59437	817.86719	1170.91553	102.52014	733.54944	1568.36133	-118.45932	943.79736	1346.34021	-131.35251	956.00946	1527.75549	38.69909	967.55560	1358.35010	21.41426	971.90051	1612.65576	-12.30987	631.56372	1588.91040	20.52123	469.37537	1582.42346	175.57227	260.87933	1539.92798	269.18359	113.70988	1501.95288	317.52090	120.55445	1511.88330	149.44780	38.80983	1286.69775	-155.96996	631.54486	1320.57800	-200.23267	517.83789	1316.98450	-223.59496	254.25482	1359.96204	-258.02881	71.61586	1406.67053	-225.25000	42.57752	1366.76074	-413.04599	60.45957	1446.01038	14.75918	1682.95728																														 
134	1.330	1494.72375	-103.76886	1652.59778	1364.15784	-89.62173	1634.44946	1512.36365	26.48706	1593.05725	1384.39795	39.60728	1581.12427	1458.73901	30.13015	1431.57068	1453.37988	48.63948	1099.80151	1450.54443	-84.59031	1359.30066	1460.67957	-131.22635	1185.49963	1388.52124	98.66984	1255.40295	1615.90955	-34.70321	1390.28931	1699.20190	-72.40084	1196.64307	1721.86499	-101.01015	1089.91699	1734.74902	-212.94910	992.01520	1678.45850	-328.45206	954.62378	1717.77112	-294.90851	906.61475	1713.46033	-381.83661	885.39349	1291.30383	-27.36673	1385.82043	1214.42859	44.59571	1192.80676	1203.52820	54.56806	1071.01733	1185.57715	69.84441	951.68182	1210.48035	45.86187	799.71490	1174.35852	100.90049	817.70105	1170.41711	88.66236	733.34631	1567.72156	-130.75800	944.14740	1345.68530	-144.10646	957.85516	1527.97961	26.18655	968.00238	1358.69641	9.54593	974.20172	1611.29175	-25.73321	631.30560	1587.95386	5.84090	468.87885	1581.82617	166.29337	264.43649	1540.56262	263.65445	120.15949	1502.64648	311.53497	129.08287	1511.46924	148.37299	38.97876	1287.24268	-169.50555	635.22766	1319.76611	-212.38443	520.91791	1315.46362	-231.95665	256.37625	1358.81860	-260.52530	72.19180	1405.49597	-226.85393	43.47988	1365.77747	-414.85333	56.94043	1445.08191	4.17221	1684.01428																														 
135	1.340	1494.16687	-114.58903	1653.92944	1363.59839	-100.86494	1635.82654	1511.47888	15.88220	1594.28296	1383.37195	28.54113	1582.41321	1458.07764	18.97202	1433.04260	1453.64160	37.03514	1101.07764	1449.90869	-95.55822	1360.71399	1460.16956	-142.68367	1186.99939	1387.63550	87.06520	1256.44434	1615.42334	-46.27355	1391.58545	1697.88049	-82.73984	1197.26929	1720.23181	-111.00926	1090.16528	1732.92725	-222.41747	991.62231	1677.01489	-337.89917	954.09705	1715.79065	-304.01288	905.88202	1712.05530	-390.86670	884.73010	1290.49780	-38.76096	1386.74780	1213.67639	31.69408	1193.03516	1202.91064	41.03661	1071.25415	1184.79834	56.16422	951.83691	1210.12292	31.61997	799.93237	1173.75073	86.71838	817.72308	1169.95520	74.23239	733.45166	1566.77234	-142.94684	944.99554	1345.15356	-156.90025	960.57104	1528.29395	13.70267	968.77545	1359.41821	-2.32448	976.47064	1610.02393	-39.82164	631.32715	1587.29309	-10.41668	468.53494	1581.44507	155.23518	268.91754	1540.77393	257.07339	127.63306	1502.76050	303.80252	138.65636	1510.97839	147.58820	38.86553	1287.04785	-182.82607	638.81818	1318.78723	-224.05270	523.50903	1313.73474	-239.15332	257.56436	1357.76392	-261.94510	72.25533	1404.39990	-227.64236	44.10505	1365.44873	-415.81760	52.67755	1444.16931	-6.70322	1685.27917																														 
